<svg xmlns="http://www.w3.org/2000/svg" aria-hidden="true" style="position:absolute;width:0;height:0;overflow:hidden">
  <defs>
    <symbol id="icon-burger-menu" viewBox="0 0 32 32">
      <path stroke-linecap="round" stroke-linejoin="round" stroke-width="2.286" d="M22.667 13.333H4M28 8H4M28 18.667H4M22.667 24H4"/>
    </symbol>
    <symbol id="icon-arrow-narrow-right" viewBox="0 0 32 32">
      <path stroke-linecap="round" stroke-linejoin="round" stroke-width="3.2" d="M5.333 16h21.333m.001 0-8-8m8 8-8 8"/>
    </symbol>
    <symbol id="icon-dump" viewBox="0 0 32 32">
      <path fill="#4f2ee8" d="M32 16c0 8.837-7.163 16-16 16S0 24.837 0 16 7.163 0 16 0s16 7.163 16 16z" style="fill:var(--color1, #4f2ee8)"/>
      <path fill="none" stroke="#fff" stroke-linecap="round" stroke-linejoin="round" stroke-width="1.684" d="M13.684 9.053h4.632m-9.263 2.315h13.895m-1.544 0-.541 8.12c-.081 1.218-.122 1.827-.385 2.289a2.322 2.322 0 0 1-1.002.938c-.478.232-1.089.232-2.31.232h-2.33c-1.221 0-1.832 0-2.31-.232a2.31 2.31 0 0 1-1.002-.938c-.263-.462-.304-1.071-.385-2.289l-.541-8.12m3.858 3.474v3.86m3.088-3.86v3.86" style="stroke:var(--color2, #fff)"/>
    </symbol>
    <symbol id="icon-arrow-drop-down" viewBox="0 0 28 32">
      <path d="M5.898 12h16.513l-7.423 8.391c-.221.25-.521.39-.834.39s-.613-.14-.834-.39L5.897 12z"/>
    </symbol>
    <symbol id="icon-lock" viewBox="0 0 32 32">
      <path stroke-linecap="round" stroke-linejoin="round" stroke-width="2.286" d="M22.667 14.667v-4a6.667 6.667 0 0 0-13.334 0v4M10.4 28h11.2c2.24 0 3.36 0 4.216-.436a3.991 3.991 0 0 0 1.748-1.748C28 24.96 28 23.84 28 21.6v-.533c0-2.24 0-3.36-.436-4.216a3.991 3.991 0 0 0-1.748-1.748c-.856-.436-1.976-.436-4.216-.436H10.4c-2.24 0-3.36 0-4.216.436a3.996 3.996 0 0 0-1.748 1.748C4 17.707 4 18.827 4 21.067v.533c0 2.24 0 3.36.436 4.216a3.991 3.991 0 0 0 1.748 1.748C7.04 28 8.16 28 10.4 28z"/>
    </symbol>
    <symbol id="icon-logo" viewBox="0 0 125 32">
<path fill="#f6f6f6" style="fill: var(--color1, #f6f6f6)" d="M0 2.286l14.008 13.862 13.421 13.567v-27.429h-27.429z"></path>
<path fill="#f6f6f6" style="fill: var(--color1, #f6f6f6)" d="M3.821 5.91l10.237 10.139 9.649 9.845h-19.886v-19.984z"></path>
<path fill="#4f2ee8" style="fill: var(--color2, #4f2ee8)" d="M23.771 25.959l-10.238-10.139-9.648-9.845h19.886v19.984z"></path>
<path fill="#4f2ee8" style="fill: var(--color2, #4f2ee8)" d="M7.935 10.024l11.657 11.658h-11.657v-11.657z"></path>
<path fill="#f6f6f6" style="fill: var(--color1, #f6f6f6)" d="M7.935 10.024l11.657 11.658v-11.657h-11.657z"></path>
<path fill="#000" style="fill: var(--color3, #000)" d="M47.659 12.266c0-2.366-1.749-3.703-4.773-3.703h-6.315v14.709h6.665c3.045 0 4.999-1.461 4.999-4.299 0-2.201-1.317-3.333-2.859-3.6v-0.041c1.214-0.411 2.283-1.255 2.283-3.065zM39.019 14.653v-4.011h3.929c1.461 0 2.263 0.72 2.263 2.016s-0.658 1.995-2.407 1.995h-3.785zM39.019 16.483h4.299c1.543 0 2.469 0.843 2.469 2.345 0 1.378-0.638 2.366-2.736 2.366h-4.032v-4.711zM54.517 23.581c-3.291 0-5.287-2.283-5.287-5.554s1.995-5.554 5.287-5.554c3.291 0 5.287 2.283 5.287 5.554s-1.995 5.554-5.287 5.554zM54.517 21.811c2.057 0 3.127-1.625 3.127-3.785 0-2.181-1.070-3.785-3.127-3.785s-3.127 1.605-3.127 3.785c0 2.16 1.070 3.785 3.127 3.785zM66.027 23.581c-3.291 0-5.287-2.283-5.287-5.554s1.995-5.554 5.287-5.554c3.291 0 5.287 2.283 5.287 5.554s-1.995 5.554-5.287 5.554zM66.027 21.811c2.057 0 3.127-1.625 3.127-3.785 0-2.181-1.070-3.785-3.127-3.785s-3.127 1.605-3.127 3.785c0 2.16 1.070 3.785 3.127 3.785zM72.807 8.563v14.709h2.16v-3.806l1.461-1.378 3.312 5.184h2.592l-4.423-6.603 3.991-3.909h-2.654l-4.279 4.217v-8.414h-2.16zM87.538 16.915c-1.522-0.35-2.695-0.432-2.695-1.502 0-0.741 0.699-1.234 1.995-1.234 1.687 0 2.098 0.843 2.242 1.666h2.098c-0.144-1.831-1.502-3.374-4.361-3.374-2.633 0-4.155 1.378-4.155 3.106 0 2.386 2.263 2.715 3.929 3.106 1.543 0.37 2.798 0.473 2.798 1.79 0 0.658-0.638 1.399-2.139 1.399-2.222 0-2.715-0.967-2.818-2.098h-2.098c0.103 2.222 1.563 3.806 4.958 3.806 2.551 0 4.279-1.255 4.279-3.271 0-2.51-2.098-2.942-4.032-3.394zM98.633 12.472c-1.769 0-2.859 0.823-3.415 1.646h-0.041v-5.554h-2.16v14.709h2.16v-6.398c0-1.563 1.131-2.571 2.715-2.571 1.502 0 2.098 0.905 2.098 2.325v6.645h2.181v-7.262c0-2.407-1.543-3.538-3.538-3.538zM108.795 21.811c-1.913 0-3.045-1.461-3.045-3.23h8.064c0-3.744-1.666-6.11-5.061-6.11-3.168 0-5.163 2.139-5.163 5.554 0 3.291 1.995 5.554 5.266 5.554 2.695 0 4.258-1.522 4.793-3.518h-2.16c-0.185 0.638-0.905 1.749-2.695 1.749zM108.754 14.179c1.749 0 2.901 1.173 2.901 2.798h-5.904c0-1.625 1.255-2.798 3.003-2.798zM115.337 8.563v14.709h2.181v-14.709h-2.181zM124.573 10.333v-1.769c-0.432-0.090-0.929-0.142-1.438-0.144h-0.002c-1.728 0-2.674 0.782-2.674 3.003v1.337h-1.502v1.769h1.502v8.743h2.181v-8.743h1.934v-1.769h-1.934v-1.152c0-1.193 0.535-1.337 1.934-1.275z"></path>
</symbol>
    <symbol id="icon-Logotype" viewBox="0 0 34 32">
      <path d="M32.716 8.869a15.813 15.813 0 0 0-2.24-.953v18.801a15.321 15.321 0 0 0-5.333-.969c-2.895 0-5.76.844-8.381 2.469V9.306c-2.469-1.454-5.318-2.313-8.381-2.313-2.728 0-5.303.688-7.573 1.875-.503.25-.808.797-.808 1.375v18.88c0 .906.716 1.547 1.524 1.547.244 0 .488-.063.731-.188 1.844-.985 3.916-1.61 6.126-1.61 3.154 0 6.065 1.282 8.381 3.126 2.316-1.844 5.227-3.126 8.381-3.126 2.21 0 4.282.625 6.126 1.625.244.125.488.188.731.188.792 0 1.524-.641 1.524-1.547V10.243c0-.578-.305-1.125-.808-1.375zM13.714 26.717c-1.737-.641-3.52-.969-5.333-.969s-3.596.328-5.333.969V11.229a13.263 13.263 0 0 1 5.333-1.11c1.829 0 3.642.391 5.333 1.125v15.473zM27.429 1.524 19.81 9.338v14.847l7.619-7.033V1.523z"/>
    </symbol>
    <symbol id="icon-mail" viewBox="0 0 32 32">
      <path stroke-linecap="round" stroke-linejoin="round" stroke-width="2.286" d="m28.666 24-8.857-8m-7.619 0-8.857 8M2.667 9.333l10.887 7.621c.882.617 1.322.926 1.802 1.045.423.106.866.106 1.29 0 .479-.12.92-.428 1.802-1.045l10.887-7.621M9.067 26.667h13.867c2.24 0 3.36 0 4.216-.436a3.996 3.996 0 0 0 1.748-1.748c.436-.856.436-1.976.436-4.216v-8.533c0-2.24 0-3.36-.436-4.216A3.991 3.991 0 0 0 27.15 5.77c-.856-.436-1.976-.436-4.216-.436H9.067c-2.24 0-3.36 0-4.216.436a3.991 3.991 0 0 0-1.748 1.748c-.436.856-.436 1.976-.436 4.216v8.533c0 2.24 0 3.36.436 4.216a3.996 3.996 0 0 0 1.748 1.748c.856.436 1.976.436 4.216.436z"/>
    </symbol>
    <symbol id="icon-arrow-back-to-top" viewBox="0 0 32 32">
      <path d="M4.5 19.6 15.7 8.367c.133-.133.278-.228.433-.283s.322-.084.5-.084.345.028.5.084.3.149.433.283L28.799 19.6c.311.311.467.7.467 1.167s-.167.867-.5 1.2c-.333.333-.722.5-1.167.5s-.833-.167-1.167-.5l-9.8-9.8-9.8 9.8c-.311.311-.694.467-1.149.467s-.851-.167-1.184-.5-.5-.722-.5-1.167c0-.444.167-.833.5-1.167z"/>
    </symbol>
    <symbol id="icon-user" viewBox="0 0 32 32">
      <path d="M5.333 29.333a10.662 10.662 0 0 1 18.208-7.543c2 2 3.124 4.714 3.124 7.543H5.332zm10.667-12c-4.42 0-8-3.58-8-8s3.58-8 8-8 8 3.58 8 8-3.58 8-8 8z"/>
    </symbol>
    <symbol id="icon-x-close" viewBox="0 0 32 32">
      <path stroke-linecap="round" stroke-linejoin="round" stroke-width="3.429" d="M24 8 8 24M8 8l16 16"/>
    </symbol>
    <symbol id="icon-cart" viewBox="0 0 32 32">
      <path d="M25.333 9.333h-4V8a5.332 5.332 0 1 0-10.666 0v1.333h-4a1.335 1.335 0 0 0-1.334 1.334v14.667a4.003 4.003 0 0 0 4 4h13.333a4.003 4.003 0 0 0 4-4V10.667a1.335 1.335 0 0 0-1.334-1.334zM13.333 8a2.668 2.668 0 0 1 5.334 0v1.333h-5.333V8zM24 25.333a1.335 1.335 0 0 1-1.334 1.334H9.333a1.335 1.335 0 0 1-1.334-1.334V12h2.667v1.333a1.335 1.335 0 0 0 2.277.943c.25-.251.391-.589.391-.943V12h5.333v1.333a1.333 1.333 0 1 0 2.667 0V12h2.667v13.333z"/>
    </symbol>
  </defs>
</svg>
